<?xml version="1.0" encoding="UTF-8"?>
<svg width="24" height="24" viewBox="0 0 24 24" fill="none" xmlns="http://www.w3.org/2000/svg">
  <path fill-rule="evenodd" clip-rule="evenodd" d="M12 2C14.2091 2 16 3.79086 16 6C16 6.73646 15.8002 7.42472 15.4508 8.02085C17.7532 8.17025 19.5793 9.97333 19.7631 12.2671C20.37 11.9099 21.0707 11.7059 21.8203 11.7059C24.0294 11.7059 25.8203 13.4967 25.8203 15.7059C25.8203 17.915 24.0294 19.7059 21.8203 19.7059C19.6111 19.7059 17.8203 17.915 17.8203 15.7059C17.8203 15.6129 17.8225 15.5205 17.8269 15.4286C17.3127 15.6284 16.7505 15.7402 16.1622 15.7402C15.6012 15.7402 15.0643 15.6366 14.5699 15.4501C14.5745 15.5345 14.5769 15.6197 14.5769 15.7059C14.5769 17.915 12.786 19.7059 10.5769 19.7059C8.36774 19.7059 6.57688 17.915 6.57688 15.7059C6.57688 15.6129 6.57911 15.5205 6.58351 15.4286C6.06931 15.6284 5.50708 15.7402 4.91882 15.7402C2.70968 15.7402 0.918823 13.9493 0.918823 11.7402C0.918823 9.53104 2.70968 7.74019 4.91882 7.74019C5.66846 7.74019 6.36918 7.94416 6.97605 8.30139C7.15989 6.00156 8.98428 4.20136 11.2849 4.03876C10.9305 3.43789 10.7273 2.74317 10.7273 2C10.7273 3.79086 12.5182 2 14.7273 2H12Z" fill="#2D513F"/>
</svg>