<svg width="346" height="345" xmlns="http://www.w3.org/2000/svg" xmlns:xlink="http://www.w3.org/1999/xlink" xml:space="preserve" overflow="hidden"><defs><clipPath id="clip0"><rect x="506" y="98" width="346" height="345"/></clipPath></defs><g clip-path="url(#clip0)" transform="translate(-506 -98)"><path d="M619.443 1526.06C613.78 1520.49 608.901 1514.17 604.932 1507.3L604.932 1507.3C600.945 1514.17 596.061 1520.47 590.409 1526.05L590.409 1526.05C573.356 1542.99 550.287 1552.48 526.253 1552.43L526.253 1552.43C502.216 1552.48 479.141 1543 462.093 1526.05L462.093 1526.05C445.063 1509.27 435.48 1486.35 435.492 1462.43L435.492 1462.43C435.485 1438.51 445.064 1415.57 462.087 1398.76L462.087 1398.76C467.684 1393.2 473.991 1388.4 480.845 1384.49L480.845 1384.49C473.989 1380.56 467.683 1375.75 462.087 1370.17L462.087 1370.17C445.057 1353.37 435.476 1330.45 435.487 1306.53L435.487 1306.53C435.48 1282.6 445.061 1259.67 462.087 1242.86L462.087 1242.86C479.153 1225.95 502.221 1216.49 526.247 1216.53L526.247 1216.53C550.275 1216.49 573.339 1225.97 590.403 1242.88L590.403 1242.88C596.044 1248.47 600.923 1254.78 604.926 1261.64L604.926 1261.64C608.895 1254.78 613.763 1248.47 619.398 1242.88L619.398 1242.88 625.141 1248.65 619.421 1242.86C636.473 1225.95 659.534 1216.49 683.548 1216.53L683.548 1216.53C707.575 1216.49 730.641 1225.95 747.705 1242.86L747.705 1242.86C764.746 1259.66 774.328 1282.6 774.317 1306.53L774.317 1306.53C774.328 1330.45 764.751 1353.37 747.727 1370.17L747.727 1370.17C742.114 1375.74 735.807 1380.55 728.952 1384.49L728.952 1384.49C735.802 1388.42 742.114 1393.21 747.727 1398.76L747.727 1398.76C764.751 1415.58 774.328 1438.51 774.317 1462.44L774.317 1462.44C774.322 1486.37 764.735 1509.3 747.705 1526.11L747.705 1526.11C730.652 1543.01 707.603 1552.48 683.594 1552.44L683.594 1552.44C659.556 1552.5 636.473 1543.02 619.421 1526.07ZM612.622 1484.95C616.247 1496.13 622.504 1506.27 630.866 1514.52L630.866 1514.52C644.881 1528.46 663.859 1536.25 683.616 1536.2L683.616 1536.2C703.351 1536.23 722.295 1528.46 736.321 1514.59L736.321 1514.59C750.268 1500.82 758.117 1482.03 758.122 1462.43L758.122 1462.43C758.128 1442.83 750.279 1424.04 736.321 1410.28L736.321 1410.28C727.919 1401.97 717.671 1395.78 706.406 1392.2L706.406 1392.2C703.04 1391.11 700.753 1387.98 700.748 1384.44L700.748 1384.44C700.77 1380.91 703.069 1377.79 706.44 1376.72L706.44 1376.72C717.699 1373.16 727.947 1366.96 736.321 1358.64L736.321 1358.64C750.279 1344.88 758.134 1326.11 758.122 1306.52L758.122 1306.52C758.128 1286.92 750.279 1268.15 736.321 1254.4L736.321 1254.4C722.289 1240.5 703.328 1232.71 683.571 1232.76L683.571 1232.76C663.831 1232.71 644.881 1240.5 630.866 1254.4L630.866 1254.4 630.866 1254.4C622.509 1262.68 616.247 1272.83 612.622 1284.02L612.622 1284.02C611.544 1287.38 608.416 1289.65 604.892 1289.63L604.892 1289.63C601.38 1289.63 598.269 1287.36 597.196 1284.01L597.196 1284.01C593.593 1272.82 587.343 1262.68 578.974 1254.42L578.974 1254.42C564.96 1240.51 545.999 1232.73 526.253 1232.78L526.253 1232.78C506.502 1232.73 487.536 1240.51 473.514 1254.42L473.514 1254.42C459.561 1268.18 451.706 1286.94 451.706 1306.54L451.706 1306.54C451.695 1326.14 459.561 1344.92 473.536 1358.66L473.536 1358.66C481.9 1366.99 492.14 1373.19 503.398 1376.74L503.398 1376.74C506.774 1377.8 509.068 1380.93 509.065 1384.47L509.065 1384.47C509.085 1388 506.809 1391.14 503.443 1392.22L503.443 1392.22C492.172 1395.78 481.914 1401.98 473.52 1410.3L473.52 1410.3C459.564 1424.07 451.709 1442.85 451.711 1462.45L451.711 1462.45C451.706 1482.03 459.563 1500.8 473.52 1514.54L473.52 1514.54C487.534 1528.47 506.502 1536.26 526.258 1536.21L526.258 1536.21C546.008 1536.25 564.971 1528.46 578.98 1514.54L578.98 1514.54C587.343 1506.3 593.593 1496.15 597.201 1484.97L597.201 1484.97C598.274 1481.62 601.38 1479.34 604.898 1479.34L604.898 1479.34C608.427 1479.32 611.561 1481.6 612.628 1484.97Z" fill="#8CB808" transform="matrix(1 0 0 1.0134 74.6038 -1134.82)"/><path d="M1773.61 1732.69C1769.7 1732.78 1766.44 1729.7 1766.31 1725.79L1766.31 1674.26C1766.45 1670.35 1769.7 1667.28 1773.61 1667.37L1832.32 1667.37C1834.17 1667.37 1835.66 1668.87 1835.66 1670.72 1835.66 1672.56 1834.17 1674.05 1832.32 1674.05L1776.24 1674.05C1774.85 1674 1773.67 1675.08 1773.61 1676.47 1773.61 1676.49 1773.61 1676.51 1773.61 1676.53L1773.61 1722.91C1773.64 1724.32 1774.79 1725.44 1776.19 1725.42 1776.21 1725.42 1776.22 1725.42 1776.24 1725.42L1834.25 1725.42C1836.27 1725.52 1837.81 1727.25 1837.7 1729.26 1837.6 1731.12 1836.11 1732.6 1834.25 1732.71ZM1832.24 1723.06C1831.84 1723.05 1831.44 1722.97 1831.07 1722.82 1821.32 1718.88 1812.75 1712.5 1806.18 1704.29 1800 1713.17 1791.03 1719.72 1780.69 1722.9 1780.25 1723.05 1779.79 1723.13 1779.33 1723.16 1777.08 1723.09 1775.29 1721.27 1775.26 1719.02 1775.26 1717.66 1776.21 1716.48 1777.53 1716.17 1786.16 1714.11 1793.82 1709.15 1799.24 1702.12L1778.4 1702.12C1776.56 1702.12 1775.07 1700.63 1775.07 1698.78 1775.07 1696.93 1776.56 1695.44 1778.4 1695.44L1802.18 1695.44C1802.27 1694.85 1802.31 1694.25 1802.33 1693.65L1802.33 1686.77 1788.49 1686.77C1786.87 1689.04 1785.03 1691.14 1782.98 1693.04 1782.35 1693.61 1781.52 1693.91 1780.67 1693.87 1778.46 1693.85 1776.61 1692.17 1776.37 1689.97 1776.4 1689.08 1776.8 1688.24 1777.48 1687.66 1781.24 1684.5 1784.26 1680.55 1786.36 1676.1 1786.99 1674.9 1788.25 1674.17 1789.6 1674.22 1791.54 1674.22 1793.63 1675.46 1793.63 1677.33 1793.62 1677.84 1793.51 1678.34 1793.29 1678.8 1793.08 1679.18 1792.86 1679.54 1792.6 1679.89L1830.35 1679.89C1832.24 1679.89 1833.77 1681.42 1833.77 1683.32 1833.77 1685.21 1832.24 1686.75 1830.35 1686.75L1809.71 1686.75C1809.71 1686.75 1809.71 1694.8 1809.61 1695.42L1833.15 1695.42C1835 1695.42 1836.49 1696.92 1836.49 1698.76 1836.49 1700.61 1835 1702.1 1833.15 1702.1L1813.11 1702.1C1818.96 1708.37 1826.21 1713.15 1834.26 1716.06 1835.47 1716.42 1836.29 1717.54 1836.25 1718.8 1836.2 1721.03 1834.47 1722.87 1832.24 1723.05Z" fill="#8CB808" transform="matrix(1 0 0 1.0134 -865.168 -1457.46)"/><path d="M2119.05 1696.74C2118.7 1696.76 2118.34 1696.71 2118 1696.59 2117.74 1696.53 2117.51 1696.45 2117.25 1696.39L2117.25 1706.96C2117.25 1710.66 2115.32 1712.53 2111.41 1712.53L2098.64 1712.53 2098.64 1721.3C2098.64 1726.56 2097.57 1729.27 2089.69 1729.27 2087.83 1729.28 2085.98 1729.17 2084.13 1728.96 2082.28 1728.86 2080.87 1727.29 2080.97 1725.45 2080.97 1725.43 2080.97 1725.42 2080.97 1725.4 2080.78 1723.54 2082.12 1721.88 2083.98 1721.66 2084.19 1721.65 2084.4 1721.68 2084.59 1721.76 2086.09 1722.13 2087.62 1722.37 2089.17 1722.47 2090.74 1722.47 2090.84 1721.76 2090.84 1719.82L2090.84 1712.53 2076.88 1712.53C2072.98 1712.53 2071.03 1710.66 2071.03 1706.96L2071.03 1696.86C2070.78 1696.95 2070.62 1697.01 2070.41 1697.08 2070.06 1697.2 2069.7 1697.25 2069.34 1697.23 2067.13 1697.12 2065.33 1695.42 2065.09 1693.21 2065.09 1692.1 2065.73 1691.12 2067.45 1690.73 2069.58 1690.18 2071.67 1689.51 2073.72 1688.71 2072.66 1687.87 2071.52 1687.04 2070.41 1686.29 2069.65 1685.92 2069.16 1685.15 2069.16 1684.3 2069.34 1682.47 2070.87 1681.06 2072.72 1681.03 2073.4 1681.02 2074.06 1681.23 2074.6 1681.65 2076.28 1682.96 2077.89 1684.36 2079.42 1685.84 2081.88 1684.29 2084.12 1682.42 2086.1 1680.27L2070.42 1680.27C2068.73 1680.45 2067.21 1679.22 2067.04 1677.53 2066.86 1675.84 2068.09 1674.33 2069.78 1674.15 2069.99 1674.13 2070.21 1674.13 2070.42 1674.15L2089.61 1674.15C2089.87 1673.57 2090.09 1672.98 2090.26 1672.36 2090.61 1671.51 2091.33 1670.86 2092.23 1670.64L2066.14 1670.64C2065.56 1670.56 2065.03 1670.97 2064.95 1671.55 2064.94 1671.63 2064.94 1671.72 2064.95 1671.81L2064.95 1685.17C2064.95 1704.57 2063.88 1715.03 2057.84 1727.06 2057.29 1728.42 2055.96 1729.3 2054.5 1729.29 2052.37 1729.33 2050.57 1727.72 2050.36 1725.6 2050.33 1725.01 2050.47 1724.44 2050.76 1723.93 2054.77 1716.48 2057.08 1708.23 2057.54 1699.79 2056.62 1701.41 2055.67 1703.05 2054.69 1704.6 2054.23 1705.49 2053.34 1706.08 2052.34 1706.16 2050.71 1706.16 2049.15 1704.24 2049.15 1701.96 2049.15 1700.66 2049.65 1699.42 2050.54 1698.48 2053.49 1695.26 2055.98 1691.65 2057.94 1687.75L2057.94 1681.33C2057.49 1682.35 2056.47 1682.99 2055.36 1682.94 2054.16 1683 2053.09 1682.19 2052.84 1681.01 2051.78 1676.56 2050.44 1669.85 2049.82 1667.81 2049.69 1667.49 2049.62 1667.15 2049.65 1666.81 2049.78 1665.1 2051.28 1663.82 2052.98 1663.96 2054.38 1663.86 2055.64 1664.81 2055.92 1666.18 2056.34 1667.98 2057.22 1673.98 2057.93 1678.61L2057.93 1669.37C2057.93 1665.64 2059.9 1663.8 2063.81 1663.8L2086.83 1663.8 2086.83 1662.13C2086.83 1660.35 2088.94 1659.45 2091.08 1659.45 2093.21 1659.45 2095.39 1660.35 2095.39 1662.13L2095.39 1663.8 2119.48 1663.8C2121.36 1663.91 2122.8 1665.52 2122.69 1667.4 2122.59 1669.14 2121.21 1670.51 2119.48 1670.62L2095.93 1670.62C2097.33 1671.11 2098 1671.94 2098 1672.84 2097.97 1673.29 2097.83 1673.73 2097.59 1674.11L2117.86 1674.11C2119.55 1673.93 2121.06 1675.16 2121.24 1676.85 2121.41 1678.54 2120.19 1680.05 2118.5 1680.23 2118.29 1680.25 2118.07 1680.25 2117.86 1680.23L2100.9 1680.23C2103.25 1682.54 2105.91 1684.51 2108.81 1686.06 2110.37 1684.77 2111.81 1683.34 2113.12 1681.78 2113.7 1681.07 2114.56 1680.66 2115.48 1680.67 2117.34 1680.6 2118.95 1681.93 2119.25 1683.77 2119.23 1684.51 2118.89 1685.21 2118.32 1685.69 2117.26 1686.7 2116.12 1687.63 2114.92 1688.47 2116.47 1688.97 2119.07 1689.71 2120.71 1690.03 2122 1690.19 2122.96 1691.3 2122.93 1692.6 2122.94 1694.79 2121.24 1696.61 2119.05 1696.74ZM2079.93 1718.57C2076.66 1721.8 2073.05 1724.66 2069.15 1727.09 2068.66 1727.41 2068.09 1727.58 2067.51 1727.58 2065.47 1727.41 2063.89 1725.73 2063.85 1723.68 2063.84 1722.54 2064.47 1721.49 2065.48 1720.97 2068.97 1719 2072.2 1716.58 2075.09 1713.79 2075.61 1713.3 2076.32 1713.02 2077.05 1713.03 2078.99 1713.15 2080.54 1714.68 2080.7 1716.61 2080.67 1717.34 2080.4 1718.02 2079.93 1718.57ZM2109.94 1694.81C2109.94 1694.05 2109.53 1693.65 2108.71 1693.65L2079.57 1693.65C2078.74 1693.65 2078.35 1694.05 2078.35 1694.81L2078.35 1697.45 2109.95 1697.45ZM2109.94 1702.57 2078.34 1702.57 2078.34 1705.43C2078.34 1706.21 2078.74 1706.59 2079.57 1706.59L2108.71 1706.59C2109.53 1706.59 2109.93 1706.21 2109.93 1705.43ZM2093.38 1680.49C2091.35 1683.28 2089.01 1685.84 2086.43 1688.14L2101.74 1688.14C2098.74 1685.84 2095.95 1683.29 2093.41 1680.49ZM2119.12 1727.17C2118.41 1727.19 2117.72 1726.95 2117.18 1726.49 2114.24 1723.72 2111.05 1721.21 2107.65 1719.02 2106.79 1718.5 2106.29 1717.55 2106.34 1716.54 2106.4 1714.64 2107.88 1713.09 2109.78 1712.94 2110.36 1712.94 2110.92 1713.11 2111.41 1713.42 2114.94 1715.5 2118.23 1717.94 2121.24 1720.72 2122.05 1721.42 2122.55 1722.42 2122.63 1723.5 2122.63 1725.46 2121.08 1727.08 2119.12 1727.16Z" fill="#8CB808" transform="matrix(1 0 0 1.0134 -1064.88 -1451.79)"/><path d="M2353.79 1689C2353.11 1688.97 2352.44 1688.78 2351.83 1688.44 2348.68 1686.77 2346.27 1685.57 2343.7 1684.33 2342.34 1683.77 2341.44 1682.46 2341.4 1680.99 2341.4 1678.8 2343.14 1677.01 2345.33 1676.94 2346.03 1676.95 2346.72 1677.11 2347.36 1677.41 2350.26 1678.82 2353.09 1680.4 2355.81 1682.14 2356.89 1682.73 2357.55 1683.88 2357.53 1685.11 2357.55 1687.21 2355.89 1688.93 2353.79 1689ZM2359.69 1702.47C2357 1710.16 2353.79 1717.66 2350.08 1724.91 2349.36 1726.38 2347.87 1727.32 2346.24 1727.33 2343.83 1727.4 2341.82 1725.53 2341.71 1723.13 2341.72 1722.28 2341.96 1721.45 2342.39 1720.72 2346.33 1713.87 2349.87 1706.8 2352.98 1699.53 2353.42 1698.04 2354.77 1696.99 2356.33 1696.96 2358.39 1697.04 2360 1698.78 2359.91 1700.84 2359.91 1700.85 2359.91 1700.85 2359.91 1700.85 2359.9 1701.4 2359.83 1701.95 2359.69 1702.48ZM2356.26 1672.07C2355.51 1672.1 2354.76 1671.88 2354.13 1671.46 2350.87 1669.33 2348.92 1668.27 2346.4 1666.87 2345.14 1666.31 2344.31 1665.08 2344.25 1663.7 2344.35 1661.52 2346.15 1659.8 2348.33 1659.81 2349.25 1659.81 2350.14 1660.08 2350.92 1660.58 2353.45 1662.06 2355.67 1663.46 2358.34 1665.38 2359.3 1666.03 2359.88 1667.11 2359.89 1668.27 2359.87 1670.29 2358.28 1671.95 2356.26 1672.06ZM2410.37 1728.79C2409.04 1728.79 2407.85 1727.98 2407.34 1726.77 2406.45 1724.96 2405.56 1723.13 2404.64 1721.4 2390.34 1724.44 2375.83 1726.44 2361.23 1727.39L2360.96 1727.39C2358.74 1727.28 2357.03 1725.4 2357.13 1723.19 2357.13 1723.17 2357.13 1723.15 2357.13 1723.13 2357.04 1721.3 2358.43 1719.75 2360.25 1719.63 2361.68 1719.55 2363.08 1719.38 2364.57 1719.33 2369.61 1711.54 2374.12 1703.42 2378.08 1695.03L2360.03 1695.03C2358.1 1694.91 2356.63 1693.26 2356.73 1691.34 2356.84 1689.56 2358.25 1688.14 2360.03 1688.04L2381.77 1688.04 2381.77 1675 2363.16 1675C2361.23 1674.89 2359.76 1673.24 2359.87 1671.32 2359.97 1669.54 2361.39 1668.12 2363.16 1668.02L2381.77 1668.02 2381.77 1662.28C2381.77 1658.04 2389.09 1658.04 2389.09 1662.28L2389.09 1668.02 2408.81 1668.02C2410.73 1668.13 2412.21 1669.78 2412.1 1671.71 2412 1673.48 2410.58 1674.9 2408.81 1675L2389.09 1675 2389.09 1688.04 2411.48 1688.04C2413.41 1688.04 2414.97 1689.61 2414.97 1691.53 2414.97 1693.46 2413.41 1695.03 2411.48 1695.03L2386 1695.03C2382.62 1703.13 2378.63 1710.95 2374.04 1718.44 2386.37 1717.32 2396.21 1715.9 2401.17 1714.9 2398.95 1711 2396.83 1707.66 2395.12 1705.18 2394.77 1704.69 2394.58 1704.11 2394.57 1703.51 2394.57 1701.63 2396.79 1700.4 2398.74 1700.4 2399.7 1700.34 2400.63 1700.75 2401.24 1701.49 2406.11 1708.28 2410.5 1715.41 2414.38 1722.82 2414.66 1723.38 2414.79 1724 2414.76 1724.62 2414.62 1726.95 2412.7 1728.77 2410.37 1728.8Z" fill="#8CB808" transform="matrix(1 0 0 1.0134 -1271.27 -1451.54)"/><path d="M2701.54 1729.09C2700.83 1729.08 2700.13 1728.89 2699.51 1728.54 2686.16 1720.75 2675.76 1708.75 2669.97 1694.41 2664.78 1709.96 2653.15 1722.54 2638.05 1728.92 2637.66 1729.06 2637.24 1729.14 2636.82 1729.14 2634.49 1728.88 2632.7 1726.99 2632.56 1724.65 2632.61 1723.39 2633.39 1722.27 2634.55 1721.8 2652.35 1713.76 2664.14 1696.43 2665.09 1676.92L2665.09 1662.42C2665.09 1658.25 2673.63 1658.25 2673.63 1662.42L2673.63 1676.92C2673.63 1692.62 2687.62 1711.53 2703.9 1721.17 2705.06 1721.82 2705.75 1723.08 2705.67 1724.41 2705.78 1726.83 2703.96 1728.9 2701.54 1729.09Z" fill="#8CB808" transform="matrix(1 0 0 1.0134 -1476.88 -1451.69)"/><path d="M2939.73 1703.59C2938.99 1703.59 2938.27 1703.3 2937.72 1702.8 2935.75 1701.16 2932.89 1698.22 2931.19 1696.81L2931.19 1725.91C2931.19 1730.2 2923.61 1730.2 2923.61 1725.91L2923.61 1698.78C2921.05 1700.67 2918.4 1702.45 2915.67 1704.08 2915.15 1704.34 2914.58 1704.5 2914 1704.53 2911.89 1704.44 2910.19 1702.75 2910.11 1700.63 2910.12 1699.49 2910.77 1698.45 2911.8 1697.95 2920.84 1692.99 2928.66 1686.06 2934.67 1677.69 2934.76 1677.59 2934.82 1677.47 2934.84 1677.33 2934.84 1677.15 2934.7 1677 2934.52 1676.98L2915.92 1676.98C2914.07 1676.98 2912.57 1675.48 2912.57 1673.64 2912.57 1671.8 2914.07 1670.3 2915.92 1670.3L2923.58 1670.3 2923.58 1662.29C2923.58 1658.05 2931.17 1658.05 2931.17 1662.29L2931.17 1670.3 2936.98 1670.3C2939.73 1669.97 2942.22 1671.93 2942.56 1674.67 2942.59 1674.97 2942.6 1675.28 2942.58 1675.58 2942.51 1677.34 2941.98 1679.05 2941.05 1680.54 2938.89 1683.99 2936.35 1687.18 2933.47 1690.06 2935.5 1691.62 2939.97 1695.27 2942.51 1697.21 2943.27 1697.74 2943.73 1698.61 2943.73 1699.54 2943.61 1701.71 2941.9 1703.44 2939.73 1703.59ZM2941.46 1726.93C2939.43 1726.74 2937.94 1724.93 2938.13 1722.9 2938.3 1721.13 2939.69 1719.74 2941.46 1719.57L2958.8 1719.57 2958.8 1681.94 2946.99 1681.94C2944.97 1681.76 2943.47 1679.98 2943.65 1677.95 2943.8 1676.17 2945.21 1674.76 2946.99 1674.61L2958.8 1674.61 2958.8 1662.78C2958.9 1660.63 2960.74 1658.98 2962.88 1659.09 2962.96 1659.1 2963.03 1659.1 2963.1 1659.11 2965.22 1658.92 2967.08 1660.49 2967.27 1662.6 2967.27 1662.66 2967.28 1662.72 2967.28 1662.78L2967.28 1674.61 2978.67 1674.61C2980.69 1674.78 2982.19 1676.57 2982.01 1678.59 2981.86 1680.37 2980.45 1681.78 2978.67 1681.94L2967.29 1681.94 2967.29 1719.57 2980.18 1719.57C2982.21 1719.72 2983.74 1721.5 2983.58 1723.54 2983.44 1725.35 2982 1726.79 2980.18 1726.93Z" fill="#8CB808" transform="matrix(1 0 0 1.0134 -1672.87 -1451.54)"/><path d="M3270.73 1733.33 3215.93 1733.33C3212 1733.43 3208.73 1730.33 3208.62 1726.41 3208.62 1726.38 3208.62 1726.35 3208.62 1726.31L3208.62 1674.11C3208.7 1670.2 3211.93 1667.09 3215.83 1667.17 3215.87 1667.17 3215.9 1667.17 3215.93 1667.17L3270.73 1667.17C3274.64 1667.13 3277.85 1670.21 3277.97 1674.11L3277.97 1726.31C3277.91 1730.25 3274.67 1733.38 3270.73 1733.33ZM3269.97 1676.61C3269.96 1675.22 3268.82 1674.1 3267.43 1674.11 3267.41 1674.11 3267.4 1674.11 3267.38 1674.11L3219.19 1674.11C3217.79 1674.07 3216.62 1675.16 3216.58 1676.56 3216.58 1676.57 3216.58 1676.59 3216.58 1676.61L3216.58 1723.87C3216.61 1725.25 3217.74 1726.34 3219.12 1726.32 3219.14 1726.32 3219.16 1726.32 3219.19 1726.31L3267.38 1726.31C3268.75 1726.37 3269.91 1725.3 3269.97 1723.93 3269.97 1723.91 3269.97 1723.89 3269.97 1723.87ZM3259.32 1690.88 3259.32 1711.06C3259.32 1719.53 3256.39 1722.62 3249.05 1722.62 3245.05 1722.49 3241.06 1721.97 3237.16 1721.06 3235.3 1720.68 3233.99 1719 3234.09 1717.1 3233.89 1715.24 3235.23 1713.58 3237.09 1713.38 3237.12 1713.38 3237.14 1713.38 3237.16 1713.38 3237.47 1713.39 3237.77 1713.45 3238.06 1713.54 3241.23 1714.44 3244.47 1715.02 3247.75 1715.25 3251.32 1715.25 3251.32 1713.47 3251.32 1710.52L3251.32 1690.89 3222.04 1690.89C3220.11 1690.81 3218.62 1689.18 3218.69 1687.26 3218.76 1685.43 3220.23 1683.98 3222.04 1683.9L3251.32 1683.9 3251.32 1679.7C3251.32 1675.45 3259.32 1675.45 3259.32 1679.7L3259.32 1683.9 3264.13 1683.9C3266.06 1683.98 3267.56 1685.61 3267.48 1687.53 3267.41 1689.36 3265.95 1690.81 3264.13 1690.89ZM3237.25 1710.51C3235.96 1710.5 3234.77 1709.83 3234.08 1708.74 3231.51 1705.25 3228.49 1702.1 3225.12 1699.36 3224.29 1698.75 3223.78 1697.79 3223.71 1696.77 3224.01 1694.68 3225.88 1693.19 3227.98 1693.37 3229.18 1693.39 3230.33 1693.83 3231.25 1694.6 3234.62 1697.52 3237.72 1700.73 3240.5 1704.21 3241.08 1704.88 3241.4 1705.74 3241.38 1706.64 3241.24 1708.81 3239.43 1710.51 3237.25 1710.51Z" fill="#8CB808" transform="matrix(1 0 0 1.0134 -1883.66 -1457.31)"/><path d="M3587.17 1652.18C3577.88 1652.18 3577.88 1636.44 3587.17 1636.44L3651.36 1636.44 3651.36 1597.94 3604.05 1597.94C3594.82 1597.94 3594.82 1582.47 3604.05 1582.47L3651.36 1582.47 3651.36 1548.51 3614.76 1548.51C3610.33 1560.47 3603.47 1571.37 3594.61 1580.53 3593.47 1581.83 3591.85 1582.59 3590.12 1582.64 3584.8 1582.11 3580.63 1577.81 3580.27 1572.47 3580.23 1570.81 3580.84 1569.2 3581.98 1568 3593.52 1555.03 3601.17 1539.08 3604.06 1521.96 3604.85 1518.18 3608.32 1515.57 3612.18 1515.84 3616.41 1515.84 3620.77 1518.36 3620.77 1522.59L3620.77 1523.54C3620.37 1526.8 3619.75 1530.05 3619.1 1533.04L3651.36 1533.04 3651.36 1519.68C3651.36 1510.85 3669.28 1510.85 3669.28 1519.68L3669.28 1533.04 3721.05 1533.04C3730.23 1533.04 3730.23 1548.51 3721.05 1548.51L3669.28 1548.51 3669.28 1582.47 3714.23 1582.47C3723.51 1582.47 3723.51 1597.94 3714.23 1597.94L3669.28 1597.94 3669.28 1636.43 3725.21 1636.43C3734.45 1636.43 3734.45 1652.17 3725.21 1652.17Z" fill="#8CB808" transform="matrix(1 0 0 1.0134 -2146.06 -1347.02)"/><path d="M4255.93 1611.63C4253.28 1611.56 4250.94 1609.92 4249.98 1607.46 4245.88 1598.9 4240.88 1590.81 4235.07 1583.31L4235.07 1653.98C4235.07 1662.79 4219.57 1662.79 4219.57 1653.98L4219.57 1589.88C4214.69 1603.78 4207.31 1616.67 4197.78 1627.91 4196.28 1629.6 4194.15 1630.59 4191.9 1630.64 4187.15 1630.21 4183.5 1626.26 4183.44 1621.5 4183.36 1619.64 4184.12 1617.85 4185.51 1616.61 4198.73 1603.48 4209.26 1587.9 4216.5 1570.73L4193.13 1570.73C4189.09 1570.54 4185.97 1567.11 4186.17 1563.08 4186.34 1559.31 4189.36 1556.3 4193.13 1556.12L4219.57 1556.12 4219.57 1537.3C4213.35 1537.92 4206.25 1538.53 4198.55 1539.05L4198.13 1539.05C4193.56 1538.7 4190.03 1534.91 4190 1530.33 4189.99 1527.13 4192.58 1524.54 4195.79 1524.53 4195.95 1524.53 4196.12 1524.54 4196.28 1524.56 4215.29 1523.88 4234.18 1521.24 4252.64 1516.67 4253.26 1516.56 4253.9 1516.5 4254.53 1516.52 4259 1516.8 4262.45 1520.57 4262.32 1525.05 4262.53 1528.27 4260.27 1531.11 4257.09 1531.65 4252.32 1532.6 4245.15 1534.05 4235.09 1535.51L4235.09 1556.14 4258.41 1556.14C4262.45 1556.34 4265.57 1559.76 4265.37 1563.8 4265.19 1567.56 4262.18 1570.58 4258.41 1570.76L4237.66 1570.76C4247.23 1579.43 4255.99 1588.97 4263.82 1599.25 4264.48 1600.26 4264.82 1601.44 4264.82 1602.64 4264.44 1607.4 4260.68 1611.2 4255.93 1611.63ZM4319.07 1651.43 4280.07 1651.43C4271.92 1651.43 4267.9 1647.5 4267.9 1639.82L4267.9 1534.66C4267.9 1526.93 4271.92 1523.12 4280.07 1523.12L4319.07 1523.12C4327.13 1523.12 4331.22 1526.93 4331.22 1534.66L4331.22 1639.83C4331.22 1647.5 4327.12 1651.43 4319.07 1651.43ZM4315.52 1540.03C4315.67 1538.84 4314.83 1537.74 4313.64 1537.58 4313.43 1537.55 4313.22 1537.56 4313.01 1537.59L4286.16 1537.59C4284.45 1537.59 4283.56 1538.38 4283.56 1540.03L4283.56 1634.46C4283.56 1636.09 4284.45 1636.91 4286.16 1636.91L4313.01 1636.91C4314.23 1637.07 4315.35 1636.22 4315.51 1635 4315.53 1634.82 4315.54 1634.64 4315.52 1634.46Z" fill="#8CB808" transform="matrix(1 0 0 1.0134 -2572.03 -1349.5)"/><path d="M4929.09 1562.11C4928.29 1562.15 4927.48 1562.05 4926.71 1561.82 4924.03 1560.97 4915.22 1558.24 4912.51 1557.15 4914.06 1558.55 4914.93 1560.56 4914.9 1562.65 4914.9 1566.62 4911.67 1569.84 4907.7 1569.83 4907.67 1569.83 4907.63 1569.83 4907.61 1569.83L4816.6 1569.83C4812.6 1569.88 4809.32 1566.69 4809.27 1562.69 4809.27 1562.61 4809.27 1562.54 4809.27 1562.46 4809.19 1560.11 4810.29 1557.87 4812.21 1556.51 4808.4 1558.11 4801.74 1560.02 4796.18 1561.68 4795.45 1561.84 4794.7 1561.93 4793.95 1561.95 4789.01 1561.47 4785.27 1557.26 4785.4 1552.3 4785.2 1549.15 4787.28 1546.31 4790.34 1545.55 4811.98 1539.85 4832.37 1530.18 4850.5 1517.05 4853.7 1514.55 4857.64 1513.18 4861.7 1513.16 4865.7 1513.16 4869.58 1514.54 4872.69 1517.05 4890.62 1530.58 4911.05 1540.42 4932.8 1546 4935.85 1546.72 4937.96 1549.5 4937.84 1552.63 4937.86 1557.6 4934.04 1561.74 4929.09 1562.11ZM4926.41 1657.91C4924.21 1657.98 4922.17 1656.8 4921.14 1654.86 4919.32 1651.64 4917.25 1648.4 4915.08 1645.16 4875.51 1650.64 4835.68 1654.08 4795.75 1655.46L4795.29 1655.46C4790.9 1655.36 4787.42 1651.73 4787.52 1647.35 4787.52 1647.27 4787.52 1647.19 4787.52 1647.11 4787.25 1643.64 4789.85 1640.6 4793.33 1640.33 4793.53 1640.31 4793.74 1640.31 4793.95 1640.31 4797.19 1640.31 4800.18 1640.21 4803.19 1639.99 4812.72 1627.47 4820.83 1613.92 4827.37 1599.6L4794.53 1599.6C4790.54 1599.6 4787.3 1596.36 4787.3 1592.36 4787.3 1588.37 4790.54 1585.13 4794.53 1585.13L4929.11 1585.13C4933.11 1585.13 4936.35 1588.37 4936.35 1592.36 4936.35 1596.36 4933.11 1599.6 4929.11 1599.6L4845.23 1599.6C4838.98 1613.32 4831.74 1626.56 4823.56 1639.23 4860.66 1637.46 4890.94 1634.37 4905.91 1632.25 4901.06 1626.04 4896.27 1620.19 4891.99 1615.56 4890.78 1614.39 4890.07 1612.79 4890.03 1611.1 4890.49 1606.85 4894.08 1603.64 4898.35 1603.64 4900.01 1603.69 4901.58 1604.39 4902.72 1605.59 4914.21 1617.74 4924.72 1630.76 4934.16 1644.56 4935.05 1645.83 4935.51 1647.36 4935.46 1648.91 4935.17 1653.77 4931.27 1657.64 4926.41 1657.91ZM4863.34 1529.57C4862.67 1529.27 4861.9 1529.27 4861.22 1529.57 4846.65 1539.92 4830.94 1548.57 4814.41 1555.36L4908.29 1555.36C4892.31 1548.63 4877.22 1539.97 4863.34 1529.57Z" fill="#8CB808" transform="matrix(1 0 0 1.0134 -2997.1 -1347.11)"/></g></svg>